<?xml version="1.0" standalone="no"?>
<!DOCTYPE svg PUBLIC "-//W3C//DTD SVG 20010904//EN"
 "http://www.w3.org/TR/2001/REC-SVG-20010904/DTD/svg10.dtd">
<svg version="1.0" xmlns="http://www.w3.org/2000/svg"
 width="512.000000pt" height="512.000000pt" viewBox="0 0 512.000000 512.000000"
 preserveAspectRatio="xMidYMid meet">
<metadata>
Created by potrace 1.14, written by Peter Selinger 2001-2017
</metadata>
<g transform="translate(0.000000,512.000000) scale(0.100000,-0.100000)"
fill="#000000" stroke="none">
<path d="M2260 4490 c0 -5 5 -10 11 -10 5 0 7 5 4 10 -3 6 -8 10 -11 10 -2 0
-4 -4 -4 -10z"/>
<path d="M1978 4323 c-50 -8 -28 -44 25 -42 12 0 16 3 10 6 -7 2 -13 12 -13
21 0 11 3 13 8 6 4 -7 16 -13 27 -15 32 -7 31 -37 -2 -41 l-28 -3 41 -30 41
-31 -25 -12 c-35 -16 -57 -15 -72 3 -7 9 -18 14 -24 12 -6 -3 -17 2 -24 9 -11
12 -7 14 20 15 18 1 25 3 16 6 -10 2 -18 9 -18 15 0 7 -4 7 -13 -1 -8 -6 -17
-8 -20 -4 -4 3 -7 -1 -7 -10 0 -9 -4 -17 -10 -17 -5 0 -10 5 -10 10 0 19 -25
10 -57 -20 -18 -17 -41 -30 -53 -30 -17 0 -20 -4 -15 -20 5 -16 2 -20 -14 -20
-12 0 -21 -5 -21 -11 0 -6 -16 3 -37 21 -34 30 -37 31 -46 14 -14 -27 -14 -26
-42 -29 -30 -4 -31 -1 -4 36 11 16 16 29 11 29 -15 0 -43 -36 -45 -59 -1 -11
-7 -23 -14 -25 -7 -3 -13 -11 -13 -17 0 -8 6 -7 18 3 11 10 25 12 42 7 25 -7
25 -7 2 -8 -13 -1 -20 -5 -17 -11 4 -6 -1 -7 -11 -3 -14 5 -16 3 -10 -13 6
-15 5 -17 -5 -6 -19 18 -34 15 -18 -4 10 -13 10 -17 -2 -25 -8 -5 -10 -9 -5
-9 6 0 6 -4 0 -10 -6 -6 -34 -11 -64 -11 l-53 -2 24 -18 c13 -10 18 -19 11
-19 -7 0 -11 -4 -8 -9 3 -5 -10 -17 -30 -26 -26 -12 -38 -14 -43 -6 -5 8 -13
5 -26 -9 -10 -11 -25 -20 -34 -20 -12 1 -11 3 4 12 11 6 27 20 36 30 17 19 35
25 24 8 -3 -5 -2 -10 3 -10 6 0 13 8 16 17 4 10 4 14 0 11 -4 -4 -15 -3 -26 3
-16 9 -25 6 -47 -15 -32 -31 -40 -32 -57 -8 -12 16 -13 15 -22 -8 -6 -17 -6
-27 2 -33 7 -5 5 -12 -9 -23 -16 -13 -17 -15 -3 -12 9 2 17 -1 16 -6 0 -5 5
-12 11 -15 15 -9 -20 -82 -36 -76 -15 5 -17 -11 -3 -20 14 -8 13 -52 -1 -57
-8 -3 -6 -9 4 -20 22 -22 10 -30 -15 -10 -48 39 -82 75 -65 69 14 -5 20 -2 24
13 3 11 9 20 12 20 4 0 8 7 8 15 0 26 -24 16 -32 -12 -4 -16 -9 -22 -13 -16
-11 18 -48 -29 -44 -55 3 -17 -2 -22 -20 -22 -22 -1 -22 -1 5 -16 36 -19 35
-67 0 -72 -25 -4 -30 -17 -10 -26 6 -3 -1 -3 -18 0 -21 4 -26 3 -16 -4 10 -8
8 -13 -10 -26 -29 -20 -39 -20 -39 -1 0 9 -9 15 -25 15 -14 0 -37 7 -50 16
-14 9 -25 12 -25 6 0 -6 5 -14 10 -17 17 -11 11 -24 -15 -31 -30 -7 -50 -29
-35 -39 5 -3 13 1 16 9 6 16 35 22 48 9 10 -10 79 -4 91 8 5 5 17 9 26 9 10 0
19 4 21 10 2 5 9 6 16 1 11 -6 10 -11 -3 -25 -9 -9 -20 -14 -25 -11 -5 3 -10
-1 -13 -7 -2 -8 13 -20 37 -29 30 -13 40 -22 38 -35 -5 -29 -27 -46 -60 -48
-21 -1 -41 -12 -61 -35 -17 -19 -34 -30 -41 -26 -9 6 -9 10 1 16 11 7 10 9 -3
9 -10 0 -16 -7 -15 -19 0 -11 4 -19 7 -19 23 2 40 -4 40 -14 -1 -19 -29 -53
-37 -44 -4 4 -1 11 6 15 11 7 9 12 -9 21 -19 10 -26 9 -46 -11 -54 -56 -76
-62 -94 -30 -17 33 -12 60 17 74 l27 15 -30 6 c-39 8 -93 5 -100 -5 -3 -5 1
-6 8 -4 19 7 56 -22 42 -32 -16 -12 -44 -69 -37 -77 4 -3 1 -6 -6 -6 -7 0 -11
-6 -8 -14 6 -16 -18 -54 -28 -44 -6 6 -65 -48 -65 -60 0 -2 12 3 26 13 30 19
54 14 53 -12 0 -16 -1 -16 -9 2 -8 20 -9 20 -9 -1 -1 -27 -31 -54 -59 -54 -19
0 -21 -4 -16 -24 4 -18 0 -28 -17 -40 -13 -8 -20 -19 -16 -22 4 -4 -6 -13 -20
-21 -18 -9 -29 -11 -31 -4 -6 18 -52 -46 -52 -72 0 -14 -4 -28 -9 -31 -14 -9
-1 -45 18 -51 9 -3 36 -23 61 -46 25 -22 39 -37 31 -33 -7 4 -23 8 -35 8 -11
1 -20 7 -19 13 1 6 -3 13 -10 16 -8 3 -14 -4 -15 -18 -1 -19 4 -24 26 -27 15
-2 26 -8 24 -15 -1 -7 5 -13 13 -13 8 0 15 -9 15 -20 0 -15 -5 -19 -22 -16
-13 3 -30 5 -38 6 -12 0 -12 2 2 11 19 11 13 39 -8 39 -12 0 -19 -26 -15 -52
0 -5 -7 -8 -16 -8 -15 0 -16 -2 -3 -10 8 -5 33 -10 55 -10 26 0 35 -3 27 -9
-10 -6 -9 -10 7 -14 12 -3 21 -12 21 -21 0 -21 -12 -20 -36 3 -15 13 -25 16
-37 9 -15 -8 -15 -12 -4 -35 13 -23 12 -28 -5 -45 -10 -10 -16 -23 -13 -27 2
-5 -2 -11 -10 -14 -9 -4 -12 -1 -8 9 3 8 -1 14 -8 15 -8 0 -29 2 -47 3 -28 3
-33 0 -39 -22 -3 -15 -6 -39 -6 -54 0 -46 -62 -48 -123 -3 -19 14 -21 14 -19
-7 1 -12 8 -24 16 -26 8 -3 29 -11 46 -19 27 -12 31 -18 23 -33 -5 -9 -6 -20
-3 -24 3 -3 1 -6 -5 -6 -7 0 -12 -9 -12 -20 0 -11 -4 -20 -10 -20 -5 0 -10 -4
-10 -9 0 -4 17 -8 38 -7 32 1 37 -2 34 -19 -2 -11 -5 -24 -5 -29 -2 -11 -24
-40 -48 -65 -21 -22 -32 -51 -30 -78 2 -15 -3 -23 -13 -23 -9 0 -13 6 -10 14
3 8 1 17 -5 20 -6 4 -6 17 -2 34 6 19 4 34 -5 47 -20 27 -17 44 6 38 11 -3 20
0 20 6 0 6 -7 11 -15 11 -8 0 -15 7 -15 15 0 8 -4 15 -9 15 -11 0 -23 -34 -25
-65 -2 -27 -15 -47 -27 -40 -9 6 -12 -16 -9 -72 1 -24 -3 -33 -14 -33 -33 0
-14 -19 27 -26 l42 -8 -54 -8 c-30 -5 -55 -9 -56 -11 -1 -1 -5 -13 -8 -27 -5
-21 -1 -28 24 -39 19 -8 28 -18 25 -27 -3 -8 1 -14 9 -14 20 0 40 -39 27 -52
-7 -7 -6 -18 5 -34 8 -13 12 -27 9 -32 -9 -15 16 -90 37 -109 19 -18 20 -17 9
3 -18 35 2 78 66 144 33 33 63 60 66 60 17 0 48 -39 40 -52 -5 -7 -7 -26 -5
-42 2 -19 -1 -26 -9 -21 -6 4 -9 13 -6 20 2 7 -1 16 -9 19 -13 5 -25 -13 -25
-38 0 -7 17 -12 43 -14 41 -1 43 0 60 43 13 30 23 42 33 38 16 -6 20 12 4 22
-5 3 -7 12 -4 20 7 18 22 11 24 -13 4 -38 1 -135 -4 -158 -8 -29 -26 -32 -33
-5 -5 19 -7 18 -29 -6 -29 -32 -30 -49 -4 -63 11 -6 18 -15 15 -20 -3 -5 17
-8 45 -7 27 1 50 5 50 10 0 4 -6 7 -14 7 -18 0 -30 17 -18 24 9 6 77 -40 77
-52 0 -3 -16 -8 -35 -9 -19 -2 -41 -10 -49 -18 -17 -17 -42 -85 -35 -97 3 -4
-2 -8 -11 -8 -9 0 -13 -5 -10 -11 11 -16 -23 -35 -68 -38 -27 -1 -47 -9 -59
-23 -21 -24 -17 -34 9 -24 26 10 28 9 25 -24 -2 -18 7 -49 23 -79 25 -46 30
-49 75 -55 26 -4 59 -2 73 3 25 10 30 18 42 78 8 42 17 42 33 1 7 -18 18 -41
23 -51 12 -22 -4 -78 -32 -118 -35 -49 -39 -73 -20 -115 17 -37 51 -76 51 -58
0 5 -8 23 -18 39 -23 39 -26 89 -7 105 12 10 18 10 30 0 13 -11 14 -10 9 5
-12 30 13 8 30 -26 14 -29 14 -30 -2 -24 -12 4 -11 0 6 -18 13 -13 25 -41 29
-61 5 -34 4 -36 -23 -36 -28 -1 -28 -1 -10 -15 19 -14 18 -15 -10 -15 -40 0
-71 24 -79 60 -4 16 -11 32 -16 35 -18 12 -8 -22 19 -63 21 -33 37 -46 71 -56
26 -7 40 -16 33 -20 -7 -4 -12 -12 -12 -17 0 -13 52 24 96 68 34 34 38 58 7
46 -13 -5 -15 -2 -10 11 4 10 7 20 7 22 0 3 5 2 12 -2 7 -5 9 -1 6 12 -13 46
-13 49 6 46 10 -2 16 1 13 6 -4 4 19 4 49 -2 41 -7 51 -12 39 -19 -9 -5 -34
-6 -56 -2 -29 5 -39 3 -39 -7 0 -9 13 -12 50 -10 43 3 49 2 44 -12 -3 -9 -12
-16 -20 -16 -8 0 -14 -4 -14 -10 0 -5 6 -10 13 -10 9 0 8 -3 -2 -9 -8 -5 -15
-34 -18 -72 -4 -56 -2 -68 17 -92 12 -16 28 -26 36 -23 7 3 16 1 19 -4 4 -6
28 -10 54 -10 49 0 65 13 73 63 2 10 17 27 35 38 l31 20 58 -73 c32 -40 92
-116 133 -168 135 -169 370 -396 553 -532 l37 -28 196 0 c111 0 194 4 191 9
-3 5 0 13 7 19 14 11 57 -2 57 -18 0 -5 4 -10 8 -10 4 0 8 16 8 36 0 26 7 41
25 55 28 22 42 24 37 7 -5 -14 15 -38 31 -38 5 0 13 -5 17 -12 5 -8 2 -9 -9
-5 -9 3 -23 0 -31 -9 -8 -8 -25 -18 -38 -23 -17 -7 0 -10 62 -9 47 0 78 2 68
5 -18 5 -33 48 -22 65 4 7 3 8 -4 4 -7 -4 -28 5 -48 20 -25 20 -48 28 -75 28
-22 0 -40 5 -43 12 -3 9 1 11 11 7 11 -4 14 -2 9 5 -4 7 -14 12 -22 12 -11 0
-13 6 -9 21 5 14 2 25 -6 30 -12 7 -12 10 -1 18 11 7 11 11 -2 23 -13 14 -12
17 10 29 14 7 24 20 23 28 -1 9 -1 30 0 46 l2 30 12 -25 c7 -14 18 -26 25 -28
8 -1 11 2 8 7 -4 5 -1 13 5 17 6 3 15 0 20 -7 7 -12 9 -12 9 0 0 7 6 11 15 7
10 -4 15 1 15 14 0 11 -7 20 -15 20 -8 0 -15 5 -15 11 0 5 -5 7 -12 3 -7 -5
-5 -12 8 -22 18 -13 17 -14 -9 -8 -19 5 -26 3 -22 -4 3 -5 1 -10 -4 -10 -21 0
-11 30 16 47 19 13 28 14 31 5 2 -6 10 -12 17 -12 7 0 16 -10 19 -22 7 -22 7
-22 15 -3 5 11 4 23 -1 26 -5 3 -3 9 6 12 9 4 16 3 16 -2 0 -13 43 -22 54 -11
7 7 6 10 -3 10 -7 0 -9 5 -6 10 10 17 33 11 31 -7 0 -11 6 -17 17 -17 9 1 17
-5 17 -13 0 -8 4 -12 9 -9 5 4 12 0 15 -6 3 -7 3 1 -1 17 -5 25 -3 28 8 18 19
-19 29 -16 29 8 0 18 2 19 15 5 17 -17 20 -30 5 -21 -5 3 -10 1 -10 -4 0 -6 0
-14 0 -18 0 -5 5 -9 10 -9 23 -3 24 -5 12 -12 -16 -11 -6 -39 16 -46 10 -3 5
-4 -10 -2 -23 3 -28 -1 -29 -18 0 -11 -2 -29 -4 -39 -2 -9 1 -15 6 -12 5 4 6
-7 3 -23 -4 -17 -1 -32 5 -36 6 -4 11 -2 11 5 0 7 2 10 5 7 3 -3 3 -13 -1 -22
-5 -14 -9 -14 -22 -4 -13 12 -14 10 -3 -10 7 -13 10 -29 8 -36 -3 -7 -1 -19 4
-27 6 -9 9 -10 9 -2 0 9 7 10 24 3 20 -7 25 -5 29 10 5 21 -16 45 -32 36 -15
-10 -7 20 12 38 9 10 18 26 18 37 2 27 3 31 17 56 9 17 9 22 -1 26 -9 4 -9 7
0 17 10 11 9 16 -5 27 -13 10 -14 13 -2 11 8 -2 15 4 15 12 0 8 -6 14 -13 12
-9 -2 -8 6 3 29 16 29 15 31 -5 49 l-21 18 21 7 c11 3 18 11 15 16 -4 5 0 9 7
9 10 0 9 3 -2 9 -8 6 -17 8 -21 5 -4 -2 -13 3 -20 12 -10 12 -10 15 2 12 9 -2
13 4 11 16 -2 10 1 15 7 11 7 -3 8 0 5 10 -4 8 -1 22 6 30 10 12 10 22 2 40
-9 20 -9 23 3 18 12 -4 15 5 16 43 3 96 13 118 62 137 9 3 17 17 17 29 0 13 9
29 20 36 11 7 20 17 20 23 0 5 11 20 25 32 15 13 27 36 30 55 8 65 46 80 41
17 -1 -19 2 -35 6 -35 5 0 6 -5 2 -11 -4 -6 -8 -56 -10 -110 -1 -54 -5 -103
-9 -109 -8 -13 4 -32 16 -24 5 3 6 10 3 16 -4 6 0 14 7 19 10 6 11 9 2 9 -7 0
-13 4 -13 9 0 5 8 7 19 4 21 -5 45 -70 29 -75 -6 -2 -3 -11 6 -21 10 -9 14
-22 10 -28 -4 -7 -3 -9 3 -6 6 4 13 0 17 -8 3 -8 1 -15 -5 -15 -5 0 -2 -11 7
-25 9 -14 21 -25 26 -25 6 0 5 6 -2 15 -9 11 -7 19 11 37 18 19 21 20 15 4 -5
-15 -2 -17 19 -12 20 5 25 3 25 -14 0 -27 30 -60 48 -52 12 4 14 1 9 -12 -6
-14 -3 -17 8 -12 9 3 24 -3 34 -13 11 -11 22 -16 26 -13 4 4 12 7 18 7 15 0
26 47 14 62 -6 9 -4 15 7 19 9 3 16 15 16 26 0 18 5 20 36 15 46 -8 78 22 88
81 3 23 11 42 17 42 6 0 9 6 7 12 -3 7 5 18 16 23 18 9 21 19 20 65 -1 30 -5
63 -9 73 -7 16 -4 17 21 11 16 -3 39 -13 51 -20 20 -12 22 -20 17 -58 -7 -47
5 -80 34 -95 16 -9 18 -6 14 20 -2 16 -8 32 -13 35 -19 11 -8 40 22 58 39 23
123 105 132 129 4 10 -2 33 -13 54 -23 43 -18 51 32 57 21 2 42 7 48 11 16 10
12 55 -5 55 -23 0 -41 46 -25 65 13 15 42 20 53 9 3 -4 2 -15 -4 -25 -7 -15
-6 -19 5 -19 7 0 16 7 20 15 3 8 12 15 21 15 8 0 15 4 15 8 0 15 -36 42 -56
42 -23 0 -67 29 -46 30 7 0 11 4 7 9 -9 16 13 23 36 10 12 -6 20 -7 17 -2 -2
4 -10 20 -17 35 -12 23 -11 29 3 43 17 18 22 55 7 55 -5 0 -13 -10 -16 -21 -6
-17 -9 -19 -16 -8 -6 9 -3 18 7 26 14 10 14 14 3 26 -8 7 -20 12 -27 9 -6 -2
-12 1 -12 7 0 6 14 11 30 11 23 0 30 -4 30 -20 0 -11 5 -20 10 -20 6 0 10 11
10 25 0 19 5 25 23 26 20 1 20 2 -5 12 -16 6 -28 15 -28 20 0 4 -12 24 -26 42
-24 32 -25 37 -13 70 13 35 29 47 29 21 0 -27 20 -27 30 0 12 30 10 34 -16 38
-26 4 -30 26 -5 26 14 0 21 6 21 20 0 16 5 19 23 15 18 -5 26 -1 35 20 6 14
22 30 35 36 13 6 29 26 36 44 11 31 14 33 46 28 43 -7 46 9 8 42 -35 29 -26
40 15 19 48 -24 59 -13 25 26 -27 32 -28 36 -13 51 9 8 21 14 27 12 6 -2 13 3
16 11 4 11 -3 13 -31 11 -20 -1 -50 -7 -66 -14 -24 -10 -27 -9 -22 4 4 11 -1
15 -17 15 -20 1 -20 2 -4 11 13 8 16 18 12 42 -5 29 -3 33 24 45 17 8 37 12
43 9 23 -8 47 11 41 34 -8 30 -48 52 -83 47 -22 -3 -29 -1 -26 8 3 7 0 14 -5
16 -6 2 -11 11 -13 20 -1 9 -10 26 -20 37 -27 30 -11 44 46 39 27 -3 51 -2 53
2 3 4 13 10 24 13 13 3 17 0 15 -12 -6 -23 8 -40 43 -50 l30 -9 1 44 c0 24 -4
44 -9 44 -6 0 -7 6 -2 13 4 6 -6 4 -21 -7 -16 -10 -25 -13 -22 -7 5 7 -3 11
-23 11 -48 0 -62 9 -55 36 6 22 -2 29 -28 25 -5 0 -8 5 -8 11 -1 7 -11 26 -24
42 -21 25 -26 27 -46 16 -12 -6 -24 -9 -27 -7 -2 3 5 8 16 12 11 3 21 14 23
23 3 15 6 14 23 -5 11 -13 26 -23 35 -23 12 1 12 3 -2 11 -10 5 -18 19 -18 29
0 12 -16 30 -40 45 -22 14 -40 32 -40 39 0 8 -5 16 -10 18 -6 2 -12 15 -14 29
-1 13 -6 30 -10 37 -4 7 -2 12 5 12 8 0 8 4 -2 16 -10 13 -10 17 1 24 9 5 11
20 7 44 -3 20 -2 34 2 31 11 -6 43 30 34 38 -3 4 -1 7 4 7 6 0 14 -5 16 -10 3
-6 4 -5 3 2 -2 7 -12 12 -22 11 -19 -2 -34 13 -34 34 0 6 14 14 30 18 17 4 30
13 30 21 0 15 -11 14 -56 -3 -6 -2 -14 7 -18 22 -6 23 -26 52 -63 91 -8 7 -12
38 -12 76 1 76 -11 109 -48 135 -34 24 -141 73 -158 73 -8 0 -15 5 -17 11 -2
7 -18 6 -50 -2 -26 -7 -50 -11 -53 -8 -3 3 -8 47 -12 98 -3 54 -11 95 -17 97
-7 3 -13 19 -14 37 -2 17 -7 33 -12 35 -5 2 -7 9 -5 15 3 7 1 17 -3 22 -12 17
-69 45 -90 45 -20 0 -39 17 -30 26 3 2 23 -2 45 -10 33 -12 40 -12 40 0 0 7
-3 11 -7 9 -13 -8 -51 37 -46 54 4 9 -3 5 -14 -9 -11 -14 -20 -20 -20 -13 0
13 -17 12 -47 -5 -49 -27 -121 -4 -146 48 -16 31 -10 39 11 18 9 -9 12 -9 12
0 0 7 -6 15 -14 18 -8 3 -13 11 -10 19 3 7 -2 15 -10 18 -9 4 -16 13 -16 21 0
23 50 65 69 58 14 -5 14 -4 1 14 -8 10 -18 21 -21 24 -3 3 -14 20 -23 38 -21
40 -28 42 -13 2 10 -25 9 -33 -6 -47 -10 -10 -17 -13 -16 -8 5 31 -3 41 -36
42 -33 1 -34 0 -20 -20 17 -25 20 -63 5 -72 -6 -4 -8 -10 -6 -14 5 -8 -56 -41
-74 -41 -6 0 -10 7 -10 15 0 8 -4 15 -10 15 -18 0 -10 19 11 25 19 6 45 50 40
69 -1 5 3 23 8 40 10 30 10 30 -6 9 -15 -23 -41 -33 -28 -12 4 6 4 25 1 43 -5
28 -11 33 -36 34 -26 1 -28 -1 -18 -18 9 -14 9 -25 1 -43 l-11 -24 -62 30
c-44 22 -57 33 -48 39 8 6 2 8 -19 4 -31 -5 -44 6 -23 19 15 9 12 25 -5 25
-15 0 -41 -39 -36 -55 1 -5 -4 -14 -12 -20 -7 -5 -16 -17 -19 -25 -4 -10 -11
-3 -23 22 -18 37 -18 38 1 59 10 11 27 25 37 31 27 14 84 -9 123 -50 36 -38
38 -38 48 -5 5 17 2 23 -16 29 -12 4 -35 16 -50 27 -14 11 -47 21 -73 23 -25
2 -50 6 -55 9 -6 3 -20 -3 -32 -15 -21 -20 -21 -20 -2 -35 19 -14 19 -14 -1
-16 -11 -1 -26 -1 -33 0 -7 1 -15 -5 -18 -13 -3 -8 -11 -13 -18 -10 -7 3 -16
-9 -21 -28 -8 -26 -16 -34 -37 -36 -32 -4 -36 5 -10 24 16 12 15 13 -5 14 -13
0 -23 6 -23 13 0 8 -16 34 -36 59 -33 43 -63 62 -91 59 -6 -1 -14 3 -18 9 -9
14 -65 12 -96 -4 -15 -7 -39 -11 -54 -8 -21 4 -26 2 -20 -8 6 -10 3 -12 -13
-8 -12 4 -22 4 -22 2 0 -6 53 -28 63 -26 4 1 7 -3 7 -8 0 -6 10 -15 23 -20 21
-8 20 -9 -10 -15 -18 -4 -33 -10 -33 -14 0 -3 20 -19 45 -35 54 -33 54 -46 1
-17 -20 12 -36 18 -36 14 0 -4 -5 -2 -12 5 -7 7 -22 12 -34 12 -32 0 -40 19
-12 29 23 9 23 9 -7 22 -41 18 -41 19 -25 30 13 9 12 10 -2 6 -9 -3 -18 -2
-20 4 -2 5 -12 11 -23 13 -11 2 -33 11 -50 20 -16 9 -34 15 -40 14 -5 0 -22
-3 -37 -5z m172 -121 c0 -4 -9 -8 -20 -9 -11 -1 -20 2 -20 5 0 4 9 8 20 9 11
1 20 -2 20 -5z m71 -39 c13 -16 12 -17 -3 -4 -10 7 -18 15 -18 17 0 8 8 3 21
-13z m-146 -23 c27 -7 25 -8 -17 -9 -27 0 -48 4 -48 9 0 11 21 11 65 0z m-380
-10 c-3 -5 -11 -10 -16 -10 -6 0 -7 5 -4 10 3 6 11 10 16 10 6 0 7 -4 4 -10z
m1225 -26 c0 -8 -5 -12 -10 -9 -6 4 -8 11 -5 16 9 14 15 11 15 -7z m-755 -14
c3 -5 -1 -10 -9 -10 -8 0 -18 5 -21 10 -3 6 1 10 9 10 8 0 18 -4 21 -10z
m-230 -31 c19 -12 40 -30 46 -40 9 -17 6 -19 -28 -18 -21 0 -32 3 -25 6 19 7
-42 43 -73 43 -37 0 -30 18 8 23 17 2 33 5 34 5 1 1 18 -8 38 -19z m-261 -20
c-7 -11 -44 -12 -44 -1 0 4 5 13 12 20 13 13 42 -4 32 -19z m979 -1 c38 1 34
-13 -4 -16 -39 -3 -69 6 -69 20 0 6 9 7 23 3 12 -4 34 -7 50 -7z m287 2 c0 -5
-4 -10 -10 -10 -5 0 -10 5 -10 10 0 6 5 10 10 10 6 0 10 -4 10 -10z m60 -60
c0 -5 -7 -7 -15 -4 -8 4 -12 10 -9 15 6 11 24 2 24 -11z m130 6 c0 -7 -8 -20
-17 -27 -15 -12 -16 -12 -10 4 4 10 7 23 7 28 0 5 5 9 10 9 6 0 10 -6 10 -14z
m-1090 -12 c0 -7 -4 -16 -10 -19 -5 -3 -10 -4 -10 -1 0 2 -2 11 -5 19 -4 8 0
14 10 14 8 0 15 -6 15 -13z m812 -48 c20 -9 45 -13 54 -9 10 3 22 0 28 -8 20
-26 163 -149 173 -149 9 0 93 -91 132 -142 20 -27 64 -119 80 -168 14 -42 21
-140 11 -140 -4 0 -2 -24 5 -52 9 -43 9 -59 -2 -85 -7 -18 -11 -52 -8 -78 3
-28 1 -44 -5 -40 -6 3 -10 2 -10 -4 0 -5 5 -13 10 -16 6 -3 10 -12 10 -18 0
-7 -8 -3 -16 8 -12 14 -18 16 -21 7 -3 -9 -16 -11 -39 -6 -32 6 -48 -7 -24
-19 6 -3 5 -4 -2 -3 -7 2 -12 13 -11 25 2 15 -3 21 -18 21 -13 0 -18 -4 -13
-12 6 -10 4 -10 -7 0 -7 6 -24 12 -37 12 -22 0 -23 -2 -11 -17 9 -11 10 -14 2
-9 -32 19 -228 25 -246 7 -6 -6 -24 -11 -39 -11 -15 0 -28 -4 -28 -10 0 -5 -8
-10 -17 -10 -10 0 -33 -9 -52 -21 -18 -11 -45 -19 -59 -17 -20 2 -26 -2 -27
-19 -1 -13 -5 -26 -10 -30 -4 -5 -5 0 -2 10 6 15 3 17 -14 12 -15 -5 -19 -4
-15 4 8 12 -6 15 -17 4 -4 -3 2 -13 13 -20 22 -16 18 -35 -5 -27 -8 4 -12 11
-8 18 4 6 -1 5 -10 -3 -9 -7 -17 -9 -17 -4 0 5 -9 9 -19 10 -13 1 -18 -3 -14
-13 7 -19 -25 -30 -49 -15 -11 7 -28 9 -39 6 -13 -5 -17 -2 -14 7 4 9 -2 14
-15 15 -11 1 -20 -4 -20 -12 0 -8 -4 -17 -10 -20 -5 -3 -7 0 -4 9 4 11 0 13
-15 9 -19 -5 -26 4 -22 30 0 4 -5 7 -13 7 -7 0 -19 7 -26 15 -7 8 -17 12 -23
8 -6 -4 -8 0 -4 11 4 9 3 14 -2 11 -12 -7 -61 15 -61 27 0 5 -5 6 -12 2 -14
-9 -60 -10 -74 -2 -5 3 -30 9 -57 12 -26 4 -45 11 -42 17 4 5 2 9 -4 9 -5 0
-13 -5 -16 -10 -5 -8 -11 -8 -19 -1 -7 6 -17 7 -21 3 -5 -4 -5 -1 -1 6 4 6 3
12 -3 12 -5 0 -8 14 -6 30 2 17 -1 30 -6 30 -8 0 -13 -14 -11 -32 1 -3 -5 -9
-13 -12 -8 -3 -15 0 -15 7 0 12 21 35 93 101 39 36 47 52 22 42 -17 -6 -21 9
-5 19 6 3 17 20 26 37 15 30 15 31 -5 25 -20 -5 -20 -4 -6 30 19 45 19 53 -1
53 -11 0 -14 5 -10 17 4 9 1 20 -6 25 -8 5 -9 8 -2 8 7 0 9 11 6 25 -2 15 0
25 7 25 6 0 11 8 11 18 0 29 30 83 42 76 6 -4 8 1 3 15 -5 16 -2 21 10 21 9 0
19 9 22 21 3 11 11 18 18 15 7 -2 17 0 23 6 6 6 8 1 5 -16 -3 -15 -1 -26 5
-26 12 0 27 38 23 60 -2 12 0 12 10 3 16 -16 53 3 45 23 -3 8 1 14 9 14 8 0
19 9 25 20 6 11 15 18 19 15 5 -2 14 2 21 10 7 8 20 15 29 15 10 0 32 16 51
35 33 34 59 48 44 23 -5 -7 -2 -8 7 -3 28 16 48 38 43 46 -3 5 4 9 16 9 23 0
61 17 71 32 3 5 16 10 29 13 12 2 25 7 28 9 10 11 159 -4 194 -18z m-1316 -27
c19 -22 19 -22 -3 -8 -13 8 -23 17 -23 21 0 12 6 9 26 -13z m448 3 c3 -5 0 -9
-7 -9 -7 0 -31 -6 -55 -12 -48 -13 -82 -7 -82 15 0 11 16 14 69 14 39 0 72 -4
75 -8z m-543 -56 c-7 -13 -24 -29 -38 -35 -30 -14 -27 -45 4 -49 28 -4 37 -29
13 -35 -13 -3 -21 1 -25 13 -3 10 -19 22 -36 25 -43 10 -34 33 29 71 30 18 49
35 43 38 -6 4 -11 12 -11 19 0 6 7 4 17 -6 14 -14 15 -20 4 -41z m-121 -40 c0
-21 -11 -46 -20 -46 -7 0 -7 44 -1 58 4 9 21 -1 21 -12z m274 -25 c-46 -21
-104 -36 -104 -26 0 12 85 45 115 44 30 0 29 -1 -11 -18z m1616 9 c0 -5 -7
-10 -16 -10 -8 0 -12 5 -9 10 3 6 10 10 16 10 5 0 9 -4 9 -10z m-1182 -76
c-10 -10 -28 6 -28 24 0 15 1 15 17 -1 9 -9 14 -19 11 -23z m-748 -24 c0 -5
-2 -10 -4 -10 -3 0 -8 5 -11 10 -3 6 -1 10 4 10 6 0 11 -4 11 -10z m-125 -30
c3 -5 1 -10 -4 -10 -6 0 -11 5 -11 10 0 6 2 10 4 10 3 0 8 -4 11 -10z m25
-109 c0 -5 -7 -14 -15 -21 -8 -7 -15 -18 -15 -25 0 -6 -9 -20 -20 -30 -18 -16
-22 -17 -35 -4 -13 13 -11 19 20 52 33 34 65 49 65 28z m-220 -31 c0 -5 -4
-10 -10 -10 -5 0 -10 5 -10 10 0 6 5 10 10 10 6 0 10 -4 10 -10z m331 -40 l24
-21 -35 17 c-43 21 -47 24 -28 24 9 0 26 -9 39 -20z m2419 -49 c21 -6 18 -8
-24 -14 -66 -9 -86 -9 -86 2 0 18 64 25 110 12z m-2376 -27 c31 -14 56 -27 56
-30 0 -6 -102 34 -114 46 -16 16 -3 12 58 -16z m2176 -25 c0 -18 -19 -28 -21
-11 0 4 -2 15 -4 24 -2 11 2 15 11 11 8 -3 14 -14 14 -24z m299 2 c9 -9 12
-13 7 -8 -27 20 -26 3 2 -26 35 -36 48 -94 15 -65 -30 26 -66 41 -132 55 -98
20 -122 49 -48 56 84 8 139 4 156 -12z m-2334 -31 c3 -5 2 -10 -4 -10 -5 0
-13 5 -16 10 -3 6 -2 10 4 10 5 0 13 -4 16 -10z m-430 -10 c3 -5 2 -10 -4 -10
-5 0 -13 5 -16 10 -3 6 -2 10 4 10 5 0 13 -4 16 -10z m2740 -48 c-3 -3 -11 0
-18 7 -9 10 -8 11 6 5 10 -3 15 -9 12 -12z m-26 -28 c14 9 64 -71 57 -91 -6
-15 -11 -13 -32 15 -15 18 -31 29 -37 25 -7 -3 -9 -2 -4 2 9 11 -22 45 -42 45
-14 0 -14 2 -2 9 9 6 22 6 33 0 10 -6 22 -8 27 -5z m-2626 -63 c-41 -37 -62
-45 -70 -24 -7 18 40 62 67 64 10 0 11 2 3 6 -7 2 -13 10 -13 16 0 6 10 1 22
-11 l22 -22 -31 -29z m-43 55 c0 -2 -8 -10 -17 -17 -16 -13 -17 -12 -4 4 13
16 21 21 21 13z m-165 -38 c-4 -18 -14 -40 -21 -49 -8 -9 -12 -22 -10 -30 3
-8 0 -21 -7 -29 -15 -20 -67 -43 -67 -30 0 10 32 82 40 90 3 3 5 14 5 24 0 15
40 50 63 55 2 1 0 -14 -3 -31z m-151 -4 c25 -10 19 -22 -9 -16 -14 2 -25 8
-25 13 0 10 12 11 34 3z m226 -183 c0 -10 -30 -24 -37 -17 -3 3 -2 9 2 15 8
13 35 15 35 2z m-290 -30 c-10 -20 -47 -37 -57 -27 -3 3 6 11 21 17 14 7 26
16 26 21 0 4 5 8 10 8 7 0 7 -6 0 -19z m2620 -17 c0 -8 -4 -12 -10 -9 -5 3
-10 10 -10 16 0 5 5 9 10 9 6 0 10 -7 10 -16z m-2470 -18 c0 -3 -4 -8 -10 -11
-5 -3 -10 -1 -10 4 0 6 5 11 10 11 6 0 10 -2 10 -4z m2441 -7 c28 -15 14 -31
-16 -17 -13 6 -22 15 -19 19 7 11 11 11 35 -2z m51 -75 c-1 -41 17 -65 19 -26
1 9 7 -10 15 -43 16 -72 15 -142 -3 -157 -7 -6 -13 -19 -13 -30 0 -15 5 -18
20 -13 22 7 22 7 25 -105 1 -34 -6 -90 -15 -125 -10 -36 -13 -62 -9 -59 5 3 9
1 9 -5 0 -5 -9 -13 -21 -16 -21 -7 -21 -7 3 -33 12 -14 18 -22 12 -19 -24 14
-28 -110 -4 -138 8 -10 10 -19 4 -23 -5 -4 -10 -54 -11 -111 -2 -109 -7 -126
-26 -100 -7 9 -18 14 -24 12 -7 -3 -13 0 -13 6 0 6 4 11 10 11 5 0 7 7 4 15
-5 11 -10 12 -26 2 -17 -10 -22 -9 -26 2 -2 7 -12 21 -22 31 -21 21 -38 66
-21 56 20 -12 12 1 -24 40 -19 22 -35 46 -35 55 0 11 -18 22 -55 34 -30 9 -53
21 -50 25 3 4 -14 14 -37 22 -24 8 -42 19 -41 25 3 14 -112 70 -151 75 -38 4
-55 -21 -37 -54 9 -18 21 -24 45 -24 19 0 41 -8 50 -17 10 -9 22 -17 27 -17 5
0 14 -12 19 -26 9 -21 7 -29 -9 -43 -15 -13 -17 -21 -9 -35 9 -16 8 -18 -5
-13 -10 4 -17 -1 -20 -15 -4 -15 -11 -18 -29 -13 -22 6 -22 6 -4 -9 26 -21 3
-20 -37 0 -55 29 -59 39 -42 94 6 20 5 22 -11 16 -11 -5 -24 -9 -31 -10 -6 -1
-32 -21 -57 -44 -25 -23 -49 -42 -54 -42 -5 0 -17 9 -26 19 -14 15 -23 18 -41
11 -25 -10 -45 4 -45 30 0 9 -3 20 -7 23 -7 8 -15 51 -15 84 0 13 -3 21 -7 19
-4 -3 -7 14 -6 37 1 35 4 43 23 45 13 2 19 8 16 14 -4 6 -8 21 -10 32 -2 12
-10 46 -19 76 -20 70 -25 89 -29 120 -2 14 -7 42 -11 62 -15 77 -13 132 6 167
10 19 16 37 14 41 -4 6 14 7 48 1 5 0 5 -6 1 -13 -5 -7 -2 -9 8 -6 21 9 46
-24 59 -77 9 -37 18 -48 43 -59 18 -7 40 -21 50 -31 10 -10 25 -19 35 -20 23
-2 91 -36 91 -45 0 -4 19 -16 43 -25 42 -17 177 -27 177 -12 0 4 14 7 31 7 20
0 28 4 23 12 -5 7 -1 9 13 6 18 -5 21 -1 21 29 0 19 5 40 11 46 17 17 14 40
-5 33 -8 -3 -12 -2 -9 4 3 6 13 10 21 10 8 0 14 5 14 10 0 14 43 30 51 18 7
-11 59 7 59 21 0 5 8 11 18 13 16 5 18 14 16 64 -2 41 3 70 15 94 10 19 16 42
14 50 -2 9 1 7 8 -4 6 -10 11 -38 11 -62z m-2657 56 c-3 -5 -10 -10 -16 -10
-5 0 -9 5 -9 10 0 6 7 10 16 10 8 0 12 -4 9 -10z m-75 -14 c0 -11 -19 -15 -25
-6 -3 5 1 10 9 10 9 0 16 -2 16 -4z m-80 -56 c0 -5 -2 -10 -4 -10 -3 0 -8 5
-11 10 -3 6 -1 10 4 10 6 0 11 -4 11 -10z m70 -32 c0 -6 -7 -5 -15 2 -8 7 -15
17 -15 22 0 6 7 5 15 -2 8 -7 15 -17 15 -22z m1910 22 c0 -5 -2 -10 -4 -10 -3
0 -8 5 -11 10 -3 6 -1 10 4 10 6 0 11 -4 11 -10z m1390 -5 c0 -9 -6 -12 -15
-9 -8 4 -15 10 -15 15 0 5 7 9 15 9 8 0 15 -7 15 -15z m-3376 -59 c23 -20 35
-46 22 -46 -18 0 -39 17 -52 41 -18 35 -4 37 30 5z m2537 -50 c-17 -20 -51
-27 -51 -10 0 8 5 15 10 15 6 1 14 2 19 3 5 0 13 4 17 9 13 12 17 -2 5 -17z
m859 -16 c0 -5 -2 -10 -4 -10 -3 0 -8 5 -11 10 -3 6 -1 10 4 10 6 0 11 -4 11
-10z m-3312 -18 c6 -18 -15 -14 -22 4 -4 10 -1 14 6 12 6 -2 14 -10 16 -16z
m2435 -9 c-7 -2 -19 -2 -25 0 -7 3 -2 5 12 5 14 0 19 -2 13 -5z m-2230 -160
c-7 -3 -13 -11 -13 -18 0 -7 -6 -15 -12 -18 -10 -3 -12 8 -9 40 l3 45 22 -22
c15 -16 17 -24 9 -27z m1349 -66 c7 -8 19 -12 27 -9 10 3 11 0 2 -17 -9 -15
-9 -27 -1 -41 8 -14 8 -20 0 -20 -6 0 -4 -7 4 -16 18 -18 21 -28 5 -19 -7 5
-9 -4 -5 -29 3 -20 2 -36 -3 -36 -5 0 -12 -10 -15 -22 -6 -21 -75 -78 -95 -78
-4 0 -13 -11 -19 -24 -6 -14 -26 -29 -46 -36 -20 -6 -34 -15 -31 -19 2 -5 -6
-13 -20 -19 -18 -8 -25 -8 -28 1 -3 9 -8 8 -21 -3 -16 -13 -20 -12 -32 5 -8
10 -14 23 -14 28 0 4 -4 6 -10 2 -5 -3 -18 3 -29 14 -12 12 -15 21 -8 24 6 2
1 13 -13 27 -16 16 -23 33 -22 51 3 20 -2 29 -17 34 -12 3 -21 13 -21 21 0 8
-5 14 -11 14 -8 0 -8 5 1 15 10 12 9 15 -6 15 -14 0 -16 3 -6 9 7 4 12 12 11
17 -4 26 14 53 34 50 12 -1 27 3 34 10 7 7 21 11 30 9 10 -2 22 -4 26 -4 5 -1
5 -7 1 -13 -5 -9 -2 -8 9 1 12 9 15 21 11 35 -6 19 -5 20 11 6 11 -8 16 -10
12 -4 -4 7 5 11 23 11 17 0 30 -5 30 -10 0 -5 12 -6 28 -2 21 5 24 4 15 -6 -6
-6 -9 -18 -6 -26 4 -11 10 -6 19 16 13 31 18 33 86 34 21 0 35 4 32 8 -8 14
13 10 28 -4z m-1769 -47 c3 -11 1 -18 -4 -14 -5 3 -9 12 -9 20 0 20 7 17 13
-6z m447 -4 c0 -10 -7 -12 -22 -8 -21 5 -21 6 -2 13 10 4 20 8 22 8 1 1 2 -5
2 -13z m3100 -86 c0 -5 -4 -10 -10 -10 -5 0 -10 5 -10 10 0 6 5 10 10 10 6 0
10 -4 10 -10z m-45 -19 c-6 -11 -45 -10 -45 1 0 4 12 8 26 8 14 0 23 -4 19 -9z
m-442 -74 c-4 -6 -12 -3 -20 8 -20 28 -16 41 7 20 11 -10 17 -22 13 -28z m417
10 c0 -8 -9 -13 -22 -11 -13 1 -27 3 -33 3 -16 2 18 21 38 21 9 0 17 -6 17
-13z m-3290 -74 c0 -10 -5 -25 -10 -33 -8 -13 -10 -12 -10 4 0 15 -3 16 -14 7
-9 -8 -16 -8 -20 -2 -6 9 30 41 46 41 5 0 8 -8 8 -17z m3327 11 c-3 -3 -12 -4
-19 -1 -8 3 -5 6 6 6 11 1 17 -2 13 -5z m23 -37 c0 -5 -9 -7 -20 -4 -10 3 -21
0 -23 -7 -5 -14 -13 -7 -21 21 -7 20 -5 21 29 11 19 -6 35 -16 35 -21z m-3470
-47 c0 -5 -5 -10 -11 -10 -5 0 -7 5 -4 10 3 6 8 10 11 10 2 0 4 -4 4 -10z
m590 -20 c-11 -20 -40 -28 -40 -12 0 7 32 27 48 31 1 1 -2 -8 -8 -19z m-860 0
c0 -5 -2 -10 -4 -10 -3 0 -8 5 -11 10 -3 6 -1 10 4 10 6 0 11 -4 11 -10z
m3743 3 c-7 -2 -19 -2 -25 0 -7 3 -2 5 12 5 14 0 19 -2 13 -5z m43 -94 c-12
-25 -12 -30 5 -45 11 -9 17 -19 14 -22 -2 -3 0 -13 6 -23 8 -15 4 -21 -23 -34
-28 -13 -30 -14 -14 -1 16 13 17 18 6 31 -9 11 -16 12 -25 5 -17 -14 -23 -3
-21 44 1 26 9 44 24 56 22 18 32 47 12 35 -14 -9 -12 29 2 43 21 21 32 -53 14
-89z m-56 71 c0 -5 -4 -10 -10 -10 -5 0 -10 5 -10 10 0 6 5 10 10 10 6 0 10
-4 10 -10z m-3067 -6 c6 -6 -16 -34 -26 -34 -4 0 -3 21 2 38 2 4 18 2 24 -4z
m-390 -18 c6 -15 -1 -26 -15 -26 -4 0 -8 9 -8 20 0 23 15 27 23 6z m454 -8
c-3 -8 -6 -5 -6 6 -1 11 2 17 5 13 3 -3 4 -12 1 -19z m-619 -35 c-14 -41 -59
-87 -69 -71 -13 20 -4 53 14 50 9 -2 17 1 17 6 0 13 41 64 47 58 3 -2 -1 -22
-9 -43z m462 28 c-10 -21 -30 -37 -30 -26 0 14 21 45 31 45 6 0 6 -7 -1 -19z
m110 -46 c-18 -22 -39 -19 -33 5 3 11 9 18 13 15 4 -3 11 3 15 13 8 16 8 16
12 -1 3 -10 -1 -24 -7 -32z m-90 10 c-7 -9 -15 -13 -17 -11 -6 6 20 36 26 30
2 -2 -2 -10 -9 -19z m2647 -7 c-3 -8 -6 -5 -6 6 -1 11 2 17 5 13 3 -3 4 -12 1
-19z m48 2 c3 -5 1 -10 -4 -10 -6 0 -11 5 -11 10 0 6 2 10 4 10 3 0 8 -4 11
-10z m-2540 -40 c5 -19 4 -21 -4 -10 -9 13 -11 12 -12 -5 -2 -48 -75 -127
-130 -140 -23 -6 -27 -2 -42 37 -24 61 -22 83 9 97 14 6 29 9 34 6 4 -3 10 5
14 18 l6 22 16 -23 c9 -13 20 -35 25 -50 8 -25 8 -25 7 8 -2 39 8 64 23 55 5
-4 9 -1 9 5 0 6 5 8 10 5 6 -3 10 -1 10 6 0 19 17 -2 25 -31z m-151 16 c-5
-14 -54 -29 -54 -17 0 4 12 12 28 18 15 6 28 11 29 12 1 1 0 -5 -3 -13z m2647
-23 c13 -16 12 -17 -3 -4 -17 13 -22 21 -14 21 2 0 10 -8 17 -17z m119 7 c0
-5 -2 -10 -4 -10 -3 0 -8 5 -11 10 -3 6 -1 10 4 10 6 0 11 -4 11 -10z m38 -56
c27 -8 28 -24 3 -46 -18 -15 -20 -15 -27 0 -9 22 -12 52 -5 52 3 0 16 -3 29
-6z m-3338 -29 c0 -18 -4 -23 -15 -19 -25 10 -19 33 13 43 1 1 2 -10 2 -24z
m3110 -37 c0 -5 -4 -8 -10 -8 -5 0 -10 10 -10 23 0 18 2 19 10 7 5 -8 10 -18
10 -22z m290 4 c0 -15 -9 -54 -20 -86 -16 -43 -20 -73 -16 -117 5 -58 -1 -72
-22 -46 -14 17 -8 137 8 147 9 6 8 14 -6 35 -17 26 -17 28 3 44 11 9 23 24 26
34 10 27 27 20 27 -11z m-650 -69 c0 -9 6 -13 14 -10 11 4 14 -1 12 -21 -2
-14 -8 -28 -15 -30 -16 -5 -14 -22 4 -22 8 0 15 -4 15 -10 0 -5 -7 -10 -16
-10 -8 0 -12 -4 -9 -10 3 -5 2 -10 -4 -10 -6 0 -8 -7 -5 -15 9 -22 -14 -18
-28 5 -15 24 -28 26 -28 5 0 -8 5 -15 10 -15 6 0 10 -9 10 -20 0 -29 -13 -25
-33 10 -10 17 -23 30 -28 30 -6 0 -8 -4 -4 -9 3 -6 -3 -14 -12 -20 -11 -6 -13
-11 -5 -11 7 0 10 -5 7 -10 -4 -6 -13 -2 -23 10 -9 11 -31 22 -47 24 -40 5
-86 -4 -79 -15 12 -20 -19 -7 -41 16 -14 16 -26 22 -30 15 -3 -5 -14 -10 -23
-10 -25 0 22 23 81 39 26 8 47 18 47 22 0 5 20 9 45 9 32 0 45 4 45 14 0 10
16 17 45 22 25 3 45 10 45 14 0 14 31 40 41 35 5 -4 9 -13 9 -22z m440 2 c0
-8 -2 -15 -4 -15 -2 0 -6 7 -10 15 -3 8 -1 15 4 15 6 0 10 -7 10 -15z m35 -17
c-1 -13 -9 -24 -19 -26 -12 -3 -16 1 -12 10 3 7 9 21 12 30 8 24 21 14 19 -14z
m402 10 c-3 -8 -6 -5 -6 6 -1 11 2 17 5 13 3 -3 4 -12 1 -19z m-3177 -19 c0
-5 -4 -9 -10 -9 -5 0 -10 7 -10 16 0 8 5 12 10 9 6 -3 10 -10 10 -16z m211
-16 c-8 -15 -10 -15 -11 -2 0 17 10 32 18 25 2 -3 -1 -13 -7 -23z m-201 -13
c0 -5 -4 -10 -10 -10 -5 0 -10 5 -10 10 0 6 5 10 10 10 6 0 10 -4 10 -10z
m234 -41 c-7 -11 -25 -11 -43 0 -12 8 -11 13 10 29 24 20 24 20 32 0 4 -11 5
-24 1 -29z m2504 16 c-10 -21 -8 -28 8 -41 14 -11 16 -17 6 -21 -10 -4 -10 -8
-1 -19 9 -11 9 -18 1 -26 -10 -10 -17 -6 -9 6 1 2 -6 13 -16 24 -14 15 -16 28
-11 61 4 24 12 41 20 41 11 0 11 -5 2 -25z m-2863 -14 c-3 -5 -1 -12 4 -15 5
-3 9 -24 9 -46 1 -35 -2 -40 -21 -40 -12 0 -30 7 -39 14 -31 23 -17 96 16 83
8 -3 18 -2 21 3 4 6 8 10 11 10 3 0 3 -4 -1 -9z m3317 -68 c21 -19 23 -33 5
-33 -8 0 -19 11 -25 25 -13 29 -6 32 20 8z m-3148 -54 c-17 -19 -18 -19 -27
-2 -7 12 -7 18 1 21 7 2 12 10 12 17 0 7 6 15 13 18 19 6 20 -33 1 -54z m190
42 c-5 -3 -10 -13 -12 -21 -2 -8 -8 -16 -13 -18 -5 -2 -9 -12 -9 -23 0 -10 -4
-19 -9 -19 -5 0 -9 14 -9 30 1 17 5 30 10 30 4 0 8 6 8 14 0 8 6 16 13 19 15
6 32 -3 21 -12z m-284 -16 c0 -8 -7 -15 -15 -15 -26 0 -18 20 13 29 1 1 2 -6
2 -14z m500 -44 c0 -6 -4 -13 -10 -16 -5 -3 -10 1 -10 9 0 9 5 16 10 16 6 0
10 -4 10 -9z m130 -16 c0 -2 -4 -15 -10 -29 -6 -17 -14 -24 -25 -20 -8 3 -15
1 -15 -5 0 -6 -4 -11 -9 -11 -6 0 -9 12 -8 28 2 20 8 28 25 30 12 2 20 8 17
13 -3 5 1 6 9 3 9 -3 16 -8 16 -9z m2157 7 c7 -5 11 -31 10 -69 -1 -33 -5 -59
-9 -56 -5 2 -8 13 -8 23 0 10 -4 20 -10 22 -5 2 -7 13 -4 25 4 13 10 20 15 17
5 -3 9 -1 9 4 0 6 -7 12 -15 16 -8 3 -15 10 -15 16 0 12 10 13 27 2z m-2787
-6 c0 -3 -4 -8 -10 -11 -5 -3 -10 -1 -10 4 0 6 5 11 10 11 6 0 10 -2 10 -4z
m84 -11 c-4 -8 -11 -15 -16 -15 -6 0 -5 6 2 15 7 8 14 15 16 15 2 0 1 -7 -2
-15z m3011 5 c8 -13 -15 -13 -35 0 -12 8 -11 10 7 10 12 0 25 -4 28 -10z
m-2794 -63 c-11 -21 -22 -33 -25 -28 -4 6 -13 8 -21 4 -11 -4 -15 2 -15 21 0
14 5 26 11 26 6 0 23 9 37 21 35 27 40 9 13 -44z m-391 19 c0 -2 -7 -9 -15
-16 -13 -11 -14 -10 -9 4 5 14 24 23 24 12z m50 -16 c0 -5 -13 -23 -30 -40
-37 -38 -39 -30 -4 16 28 36 34 40 34 24z m-50 -25 c-7 -8 -17 -15 -23 -15 -5
0 -2 9 8 20 21 23 35 19 15 -5z m445 4 c8 -24 -5 -42 -22 -31 -13 8 -6 52 7
52 5 0 12 -9 15 -21z m80 -10 c5 -20 2 -34 -10 -45 -20 -21 -22 -18 -28 32 -4
33 -2 40 13 41 13 1 21 -7 25 -28z m2752 20 c16 -16 5 -39 -17 -39 -11 0 -22
-5 -25 -10 -9 -15 -25 -2 -25 21 0 10 7 19 15 19 8 0 15 5 15 10 0 13 23 13
37 -1z m-287 -37 c0 -7 -4 -10 -10 -7 -5 3 -10 16 -10 28 0 18 2 19 10 7 5 -8
10 -21 10 -28z m-2840 3 c-13 -15 -62 -45 -75 -45 -16 0 18 39 47 53 37 18 47
15 28 -8z m80 9 c0 -9 -11 -29 -25 -45 -13 -16 -27 -46 -30 -67 -4 -20 -17
-61 -30 -91 -19 -44 -29 -56 -50 -58 -15 -2 -24 0 -21 5 3 6 -6 35 -19 65 -32
70 -27 96 25 120 22 10 52 33 67 52 31 37 83 49 83 19z m35 6 c3 -5 1 -10 -4
-10 -6 0 -11 5 -11 10 0 6 2 10 4 10 3 0 8 -4 11 -10z m100 -40 c-3 -5 -13 -7
-23 -5 -9 1 -11 0 -4 -2 23 -8 12 -23 -17 -23 -17 0 -31 6 -35 16 -9 23 -7 31
3 15 8 -12 12 -12 25 1 15 16 61 14 51 -2z m-92 -44 c-4 -6 -8 -5 -11 2 -2 7
-20 -5 -43 -30 -35 -39 -38 -41 -39 -20 0 13 13 37 30 53 25 26 32 28 49 17
11 -6 17 -17 14 -22z m7 -20 c0 -2 -7 -6 -15 -10 -8 -3 -15 -1 -15 4 0 6 7 10
15 10 8 0 15 -2 15 -4z m440 -15 c0 -5 -7 -12 -16 -15 -14 -5 -15 -4 -4 9 14
17 20 19 20 6z m-842 -46 c9 -20 16 -23 34 -16 13 4 36 11 52 15 27 7 28 6 22
-20 -4 -14 -14 -37 -23 -50 -14 -22 -22 -25 -72 -22 -56 3 -56 3 -65 40 -18
71 25 113 52 53z m432 26 c0 -13 -28 -22 -35 -11 -3 4 1 11 7 13 20 8 28 8 28
-2z m118 -9 c2 -6 -1 -12 -7 -12 -6 0 -8 -6 -5 -14 3 -8 -13 -29 -37 -50 -24
-20 -40 -36 -36 -36 3 0 22 14 42 31 19 17 35 27 35 21 0 -5 -17 -25 -37 -42
-36 -32 -37 -32 -46 -12 -11 24 -2 72 14 72 10 0 39 24 39 33 0 3 -7 4 -16 3
-9 0 -19 5 -21 12 -4 9 6 12 33 10 20 -2 39 -9 42 -16z m2727 -14 c-8 -27 -35
-58 -35 -41 0 19 22 63 32 63 5 0 6 -10 3 -22z m-2941 -36 c-4 -20 -11 -29
-20 -25 -19 7 -18 22 3 45 21 23 25 19 17 -20z m261 -11 c-8 -17 -18 -31 -20
-31 -8 0 7 54 19 69 17 22 19 -5 1 -38z m-175 -10 c0 -48 -10 -60 -51 -61 -10
0 -18 40 -12 57 5 12 9 11 20 -8 15 -25 14 -16 -2 36 -5 17 -1 21 19 23 25 2
26 -1 26 -47z m140 0 c0 -5 -21 -32 -47 -61 -34 -38 -48 -48 -54 -38 -13 20
-12 22 26 42 19 11 42 30 50 42 16 25 25 30 25 15z m-242 -42 c12 -19 11 -20
-10 -17 -12 2 -24 11 -26 21 -5 24 20 21 36 -4z m80 -48 c3 -8 -1 -12 -9 -9
-7 2 -15 10 -17 17 -3 8 1 12 9 9 7 -2 15 -10 17 -17z m-38 -6 c10 -12 9 -15
-6 -15 -11 0 -28 7 -38 15 -19 14 -19 15 6 15 14 0 31 -7 38 -15z m2951 -35
c5 0 9 -4 9 -10 0 -13 -57 -13 -64 -1 -7 11 14 21 32 15 8 -2 18 -4 23 -4z
m-34 -54 c21 1 30 -1 21 -3 -10 -3 -15 -10 -11 -19 3 -9 -2 -14 -17 -14 -11 0
-18 -5 -15 -10 3 -6 -6 -15 -21 -20 -29 -12 -51 4 -35 25 5 5 11 23 15 39 6
22 10 26 16 16 5 -8 25 -14 47 -14z m-2867 4 c0 -5 -4 -10 -10 -10 -5 0 -10 5
-10 10 0 6 5 10 10 10 6 0 10 -4 10 -10z m-147 -30 c23 -45 31 -105 15 -117
-10 -9 -14 -2 -16 32 -1 24 -9 57 -17 72 -17 33 -19 43 -6 43 5 0 16 -13 24
-30z m225 21 c18 -11 -3 -26 -43 -29 l-30 -3 25 20 c28 23 30 24 48 12z m2522
-275 c0 -3 -4 -8 -10 -11 -5 -3 -10 -1 -10 4 0 6 5 11 10 11 6 0 10 -2 10 -4z
m-339 -89 c-10 -9 -11 -8 -5 6 3 10 9 15 12 12 3 -3 0 -11 -7 -18z m-463 -211
c-7 -8 -15 -12 -17 -11 -5 6 10 25 20 25 5 0 4 -6 -3 -14z m-251 -11 c4 -4 3
-5 -4 -1 -6 3 -14 2 -18 -4 -4 -6 -11 -8 -16 -4 -5 3 -7 9 -4 14 6 10 31 7 42
-5z m-90 -105 c-1 -20 -8 -25 -20 -14 -3 3 0 12 6 20 16 17 16 17 14 -6z"/>
<path d="M2190 3210 c0 -5 5 -10 10 -10 6 0 10 5 10 10 0 6 -4 10 -10 10 -5 0
-10 -4 -10 -10z"/>
<path d="M3733 3360 c-13 -5 -23 -12 -23 -16 0 -8 53 5 65 17 12 12 -12 11
-42 -1z"/>
<path d="M3358 2790 c-7 -24 -3 -38 8 -28 3 4 4 17 2 30 l-3 23 -7 -25z"/>
<path d="M3343 2255 c-14 -15 -7 -48 8 -39 5 3 7 9 4 14 -3 5 2 16 11 24 11
12 12 16 2 16 -7 -1 -19 -7 -25 -15z"/>
<path d="M3283 2135 c-7 -7 -9 -16 -6 -19 4 -3 0 -6 -8 -7 -8 0 -4 -4 9 -9 12
-5 22 -18 22 -29 0 -25 16 -36 24 -16 3 8 -3 32 -12 53 -14 31 -20 36 -29 27z"/>
<path d="M2885 2050 c3 -5 8 -10 11 -10 2 0 4 5 4 10 0 6 -5 10 -11 10 -5 0
-7 -4 -4 -10z"/>
<path d="M1935 2440 c3 -5 8 -10 11 -10 2 0 4 5 4 10 0 6 -5 10 -11 10 -5 0
-7 -4 -4 -10z"/>
<path d="M2890 1711 c0 -5 5 -13 10 -16 6 -3 10 -2 10 4 0 5 -4 13 -10 16 -5
3 -10 2 -10 -4z"/>
<path d="M736 1361 c-4 -5 -2 -12 3 -15 5 -4 12 -2 15 3 4 5 2 12 -3 15 -5 4
-12 2 -15 -3z"/>
<path d="M1900 4274 c0 -8 5 -12 10 -9 6 4 8 11 5 16 -9 14 -15 11 -15 -7z"/>
<path d="M1723 4226 c2 -12 51 -34 80 -35 34 -2 16 15 -33 31 -34 11 -49 12
-47 4z"/>
<path d="M3058 4233 c7 -3 16 -2 19 1 4 3 -2 6 -13 5 -11 0 -14 -3 -6 -6z"/>
<path d="M2025 4199 c-10 -15 1 -23 20 -15 9 3 13 10 10 16 -8 13 -22 13 -30
-1z"/>
<path d="M1495 4060 c3 -5 11 -10 16 -10 6 0 7 5 4 10 -3 6 -11 10 -16 10 -6
0 -7 -4 -4 -10z"/>
<path d="M3032 4029 c2 -6 8 -10 13 -10 5 0 11 4 13 10 2 6 -4 11 -13 11 -9 0
-15 -5 -13 -11z"/>
<path d="M1485 4020 c3 -5 13 -10 21 -10 8 0 14 5 14 10 0 6 -9 10 -21 10 -11
0 -17 -4 -14 -10z"/>
<path d="M3210 3970 c0 -5 9 -10 21 -10 11 0 17 5 14 10 -3 6 -13 10 -21 10
-8 0 -14 -4 -14 -10z"/>
<path d="M3268 3953 c7 -3 16 -2 19 1 4 3 -2 6 -13 5 -11 0 -14 -3 -6 -6z"/>
<path d="M3220 3937 c0 -22 26 -51 39 -42 9 5 7 11 -8 22 -12 8 -19 19 -16 24
4 5 1 9 -4 9 -6 0 -11 -6 -11 -13z"/>
<path d="M3280 3910 c0 -5 7 -10 16 -10 8 0 12 5 9 10 -3 6 -10 10 -16 10 -5
0 -9 -4 -9 -10z"/>
<path d="M1183 3825 c-9 -20 -8 -25 3 -25 8 0 14 7 14 15 0 8 5 15 10 15 6 0
10 5 10 10 0 20 -25 9 -37 -15z"/>
<path d="M3554 3735 c3 -54 29 -125 45 -125 6 0 1 16 -11 36 -18 30 -19 37 -7
45 9 6 10 9 2 9 -6 0 -16 19 -22 43 l-10 42 3 -50z"/>
<path d="M3745 3700 c-3 -5 1 -10 10 -10 9 0 13 5 10 10 -3 6 -8 10 -10 10 -2
0 -7 -4 -10 -10z"/>
<path d="M844 3619 c9 -15 26 -29 38 -32 11 -3 17 -3 12 1 -5 4 -22 18 -38 32
l-29 25 17 -26z"/>
<path d="M853 3414 c-26 -40 -22 -43 15 -9 17 16 23 28 17 34 -6 6 -18 -4 -32
-25z"/>
<path d="M793 3413 c-3 -10 -8 -22 -10 -28 -3 -5 3 -1 11 9 16 20 21 36 11 36
-3 0 -8 -8 -12 -17z"/>
<path d="M888 3323 c7 -3 16 -2 19 1 4 3 -2 6 -13 5 -11 0 -14 -3 -6 -6z"/>
<path d="M671 3219 c-16 -13 -18 -19 -8 -19 15 0 43 27 36 34 -2 3 -15 -4 -28
-15z"/>
<path d="M4166 3193 c-6 -14 -9 -15 -15 -4 -11 17 -23 -1 -15 -22 3 -8 1 -18
-5 -22 -6 -3 -11 -15 -11 -26 0 -11 -5 -17 -10 -14 -6 4 -9 19 -8 33 3 25 0
27 -35 30 -37 3 -38 3 -31 -25 10 -41 14 -45 39 -39 17 4 25 1 29 -12 11 -34
42 -20 59 26 9 23 12 40 7 37 -6 -3 -10 1 -10 10 0 11 5 15 14 12 8 -3 13 0
12 8 -3 23 -13 27 -20 8z"/>
<path d="M4181 3123 c-19 -29 -21 -39 -12 -57 7 -11 9 -13 7 -4 -4 12 -1 15
10 11 11 -4 15 0 13 13 -2 10 1 29 5 42 12 36 3 34 -23 -5z"/>
<path d="M4003 3110 c1 -11 7 -20 13 -20 7 0 10 8 7 20 -3 11 -9 20 -14 20 -4
0 -7 -9 -6 -20z"/>
<path d="M4232 3070 c0 -14 2 -19 5 -12 2 6 2 18 0 25 -3 6 -5 1 -5 -13z"/>
<path d="M4060 3069 c0 -5 5 -7 10 -4 6 3 10 8 10 11 0 2 -4 4 -10 4 -5 0 -10
-5 -10 -11z"/>
<path d="M572 3043 c5 -7 14 -10 19 -7 16 10 9 23 -10 21 -15 -1 -17 -4 -9
-14z"/>
<path d="M4090 3020 c-11 -7 -6 -10 22 -10 20 0 40 5 43 10 8 13 -45 13 -65 0z"/>
<path d="M539 2993 c-13 -16 -12 -17 4 -4 9 7 17 15 17 17 0 8 -8 3 -21 -13z"/>
<path d="M4044 2958 c-8 -13 23 -38 47 -38 10 0 21 -5 25 -12 5 -8 -1 -9 -22
-5 -22 4 -33 0 -45 -17 -16 -21 -16 -23 20 -46 20 -14 38 -27 41 -31 10 -11
50 -4 50 9 0 7 -3 11 -8 8 -4 -2 -13 7 -19 21 -11 24 -11 25 13 20 18 -3 24
-1 20 9 -3 8 -1 14 3 14 5 0 12 8 16 18 5 14 4 15 -6 5 -20 -20 -29 -16 -29
12 0 19 -5 25 -22 24 -13 -1 -35 3 -50 9 -20 8 -29 8 -34 0z"/>
<path d="M3995 2770 c-3 -6 5 -10 19 -10 14 0 28 5 31 10 3 6 -5 10 -19 10
-14 0 -28 -4 -31 -10z"/>
<path d="M440 2750 c0 -5 9 -10 21 -10 11 0 17 5 14 10 -3 6 -13 10 -21 10 -8
0 -14 -4 -14 -10z"/>
<path d="M4150 2740 c0 -5 5 -10 11 -10 5 0 7 5 4 10 -3 6 -8 10 -11 10 -2 0
-4 -4 -4 -10z"/>
<path d="M4118 2719 c-19 -10 -14 -39 7 -39 6 0 20 8 29 19 15 17 15 19 1 25
-20 7 -16 8 -37 -5z"/>
<path d="M432 2691 c-15 -9 -20 -73 -6 -78 6 -2 16 14 22 37 10 41 5 54 -16
41z"/>
<path d="M4122 2592 c4 -21 28 -27 28 -8 0 14 3 14 20 4 10 -7 22 -9 26 -5 12
12 -3 20 -41 22 -27 1 -35 -2 -33 -13z"/>
<path d="M415 2590 c3 -5 11 -10 16 -10 6 0 7 5 4 10 -3 6 -11 10 -16 10 -6 0
-7 -4 -4 -10z"/>
<path d="M4188 2503 c7 -3 16 -2 19 1 4 3 -2 6 -13 5 -11 0 -14 -3 -6 -6z"/>
<path d="M4100 2366 c0 -2 9 -6 20 -9 11 -3 20 -1 20 4 0 5 -9 9 -20 9 -11 0
-20 -2 -20 -4z"/>
<path d="M216 2275 c4 -8 10 -15 15 -15 5 0 9 7 9 15 0 8 -7 15 -15 15 -9 0
-12 -6 -9 -15z"/>
<path d="M4245 2230 c-3 -5 -1 -10 4 -10 6 0 11 5 11 10 0 6 -2 10 -4 10 -3 0
-8 -4 -11 -10z"/>
<path d="M4212 2190 c-21 -17 -15 -39 7 -26 5 3 12 -2 15 -11 5 -13 9 -14 19
-4 9 9 9 14 -2 20 -7 5 -11 13 -7 19 12 19 -9 20 -32 2z"/>
<path d="M4125 2140 c-3 -5 -1 -10 4 -10 6 0 11 5 11 10 0 6 -2 10 -4 10 -3 0
-8 -4 -11 -10z"/>
<path d="M4204 2074 c3 -8 6 -20 6 -25 0 -5 5 -9 10 -9 16 0 11 37 -6 44 -12
5 -15 2 -10 -10z"/>
<path d="M4743 1975 c0 -8 4 -12 9 -9 4 3 8 9 8 15 0 5 -4 9 -8 9 -5 0 -9 -7
-9 -15z"/>
<path d="M4110 1870 c-11 -7 -6 -9 18 -7 17 2 35 7 39 10 10 11 -40 8 -57 -3z"/>
<path d="M4752 1805 c0 -16 2 -22 5 -12 2 9 2 23 0 30 -3 6 -5 -1 -5 -18z"/>
<path d="M104 1744 c-15 -13 -16 -15 -2 -10 11 3 19 -2 23 -15 6 -18 25 -27
25 -11 0 4 3 17 6 30 5 17 2 22 -13 22 -11 0 -28 -7 -39 -16z"/>
<path d="M3940 1673 c0 -4 5 -15 10 -23 8 -13 10 -13 10 2 0 9 -4 20 -10 23
-5 3 -10 3 -10 -2z"/>
<path d="M415 1660 c-3 -5 -2 -10 4 -10 5 0 13 5 16 10 3 6 2 10 -4 10 -5 0
-13 -4 -16 -10z"/>
<path d="M170 1510 c0 -13 7 -20 20 -20 13 0 20 7 20 20 0 13 -7 20 -20 20
-13 0 -20 -7 -20 -20z"/>
<path d="M430 1505 c-11 -13 -10 -14 4 -9 9 3 16 10 16 15 0 13 -6 11 -20 -6z"/>
<path d="M185 1470 c-3 -5 -2 -10 4 -10 5 0 13 5 16 10 3 6 2 10 -4 10 -5 0
-13 -4 -16 -10z"/>
<path d="M375 1460 c-5 -15 -13 -20 -26 -17 -15 4 -19 0 -19 -23 0 -16 -5 -41
-10 -56 -15 -39 -4 -41 19 -3 11 18 28 34 39 35 10 2 29 8 43 14 22 10 21 10
-8 6 -31 -5 -44 6 -24 18 10 6 9 31 -1 41 -3 4 -9 -3 -13 -15z"/>
<path d="M151 1454 c0 -11 3 -14 6 -6 3 7 2 16 -1 19 -3 4 -6 -2 -5 -13z"/>
<path d="M184 1435 c-7 -17 1 -45 13 -45 4 0 9 14 10 30 2 31 -13 41 -23 15z"/>
<path d="M283 1104 l-28 -26 30 20 c17 10 37 22 45 25 12 4 12 6 -2 6 -9 1
-30 -11 -45 -25z"/>
<path d="M430 1071 c0 -11 5 -23 10 -26 6 -4 10 5 10 19 0 14 -4 26 -10 26 -5
0 -10 -9 -10 -19z"/>
<path d="M166 1065 c4 -8 10 -15 15 -15 4 0 6 7 3 15 -4 8 -10 15 -15 15 -4 0
-6 -7 -3 -15z"/>
<path d="M415 1020 c-3 -5 1 -10 9 -10 9 0 16 5 16 10 0 6 -4 10 -9 10 -6 0
-13 -4 -16 -10z"/>
<path d="M70 914 c0 -8 5 -12 10 -9 6 4 8 11 5 16 -9 14 -15 11 -15 -7z"/>
<path d="M3612 872 c13 -25 18 -50 14 -77 -3 -26 4 -64 19 -110 25 -73 25 -69
4 80 -11 76 -28 127 -48 139 -5 3 0 -11 11 -32z"/>
<path d="M120 831 c-14 -26 -13 -36 3 -23 6 5 24 9 39 7 25 -3 27 -1 18 16
-14 25 -46 24 -60 0z"/>
<path d="M70 814 c0 -8 5 -12 10 -9 6 3 10 10 10 16 0 5 -4 9 -10 9 -5 0 -10
-7 -10 -16z"/>
<path d="M66 752 c-3 -20 -6 -72 -6 -115 0 -72 2 -78 19 -72 10 3 38 11 62 18
l44 13 3 77 c3 77 3 77 -23 77 -22 0 -27 -5 -24 -26 1 -9 -23 -24 -40 -24 -10
0 -8 7 7 23 21 22 21 24 5 39 -35 30 -40 28 -47 -10z"/>
<path d="M165 770 c-3 -5 3 -10 15 -10 12 0 18 5 15 10 -3 6 -10 10 -15 10 -5
0 -12 -4 -15 -10z"/>
<path d="M2995 684 c-8 -21 -18 -49 -21 -63 -3 -14 -12 -40 -20 -58 -13 -28
-19 -73 -15 -111 0 -7 6 -10 13 -6 7 5 9 2 4 -7 -4 -8 0 -5 8 5 11 14 13 22 5
27 -8 5 -8 8 0 13 8 5 8 13 1 26 -7 13 -6 23 3 32 14 16 19 33 19 68 0 34 7
43 23 30 22 -18 31 33 12 61 -16 21 -16 21 -32 -17z"/>
<path d="M3662 585 c-15 -88 -32 -204 -37 -255 -8 -90 -16 -130 -25 -130 -4 0
-11 -15 -14 -34 -4 -19 -10 -36 -15 -38 -4 -2 -11 -22 -14 -46 -7 -56 -2 -50
29 34 54 148 91 348 82 439 -3 22 -5 36 -6 30z"/>
<path d="M3342 459 c2 -7 10 -15 17 -17 8 -3 12 1 9 9 -2 7 -10 15 -17 17 -8
3 -12 -1 -9 -9z"/>
<path d="M2920 430 c8 -5 10 -10 4 -10 -7 0 -12 -6 -11 -12 1 -37 -5 -47 -28
-50 -40 -5 -30 -23 13 -23 26 0 37 4 37 15 0 8 8 24 17 34 17 18 17 21 1 38
-9 10 -23 18 -32 18 -14 0 -14 -2 -1 -10z"/>
<path d="M2538 382 c6 -2 10 -8 6 -13 -8 -13 8 -11 28 5 15 11 14 13 -15 13
-18 0 -26 -2 -19 -5z"/>
<path d="M3036 351 c-3 -5 1 -14 8 -20 12 -10 13 -8 9 8 -6 23 -9 25 -17 12z"/>
<path d="M2917 313 c-4 -3 -7 -13 -7 -22 1 -13 3 -13 11 2 11 19 8 33 -4 20z"/>
<path d="M2376 245 c-9 -26 -7 -32 5 -12 6 10 9 21 6 23 -2 3 -7 -2 -11 -11z"/>
<path d="M3467 243 c-7 -11 10 -40 18 -31 4 4 3 14 -3 24 -5 9 -12 12 -15 7z"/>
<path d="M2536 225 c-3 -9 0 -15 9 -15 16 0 20 16 6 24 -5 3 -11 -1 -15 -9z"/>
<path d="M3456 192 c-2 -4 4 -9 15 -9 10 -1 19 2 19 8 0 11 -27 12 -34 1z"/>
<path d="M2973 174 c-7 -20 8 -48 29 -52 16 -3 33 41 23 58 -10 16 -45 11 -52
-6z"/>
<path d="M3420 146 c0 -9 4 -15 9 -11 6 3 14 -3 20 -12 6 -10 11 -13 11 -7 0
6 -9 19 -20 29 -19 17 -20 17 -20 1z"/>
<path d="M3384 105 c-4 -8 -12 -15 -20 -15 -8 0 -14 -7 -14 -15 0 -8 -4 -15
-10 -15 -5 0 -10 5 -10 10 0 9 -65 8 -74 -1 -5 -5 -9 -30 -7 -47 2 -20 21 -3
21 19 0 10 7 19 15 19 9 0 15 -9 15 -25 0 -14 5 -25 10 -25 6 0 10 7 10 15 0
22 31 18 37 -5 8 -31 25 -23 20 10 -3 17 0 34 8 40 16 13 26 50 14 50 -5 0
-12 -7 -15 -15z"/>
<path d="M3463 82 c-15 -10 -27 -58 -16 -65 5 -3 14 12 20 34 5 21 10 39 9 39
-1 0 -6 -4 -13 -8z"/>
<path d="M3533 24 c0 -17 2 -22 7 -13 5 6 6 18 3 26 -8 19 -10 16 -10 -13z"/>
<path d="M2771 24 c0 -11 3 -14 6 -6 3 7 2 16 -1 19 -3 4 -6 -2 -5 -13z"/>
<path d="M2710 9 c0 -5 5 -7 10 -4 6 3 10 8 10 11 0 2 -4 4 -10 4 -5 0 -10 -5
-10 -11z"/>
</g>
</svg>
